<svg xmlns="http://www.w3.org/2000/svg" width="45" height="45" fill="none" aria-hidden="true" viewBox="0 0 45 45">
    <path stroke="#fbfffa" stroke-linejoin="round" stroke-width="1.5" d="M22.5 43.999c11.873 0 21.499-9.626 21.499-21.5C43.999 10.627 34.373 1 22.499 1 10.627 1 1 10.626 1 22.5c0 11.873 9.626 21.499 21.5 21.499Z"></path>
    <path stroke="#fbfffa" stroke-linejoin="round" stroke-width="1.5" d="M16.767 8.335a97.656 97.656 0 0 1 5.733-.163c9.499 0 17.2 1.283 17.2 2.867 0 1.583-7.701 2.866-17.2 2.866-9.498 0-17.2-1.283-17.2-2.866 0-.96 2.827-1.81 7.167-2.33M20.787 19.641c.566-.005 1.138-.008 1.714-.008 11.874 0 21.5 1.283 21.5 2.866 0 1.213-5.643 2.25-13.617 2.668M24.214 25.354c-.566.005-1.138.008-1.714.008-11.873 0-21.5-1.283-21.5-2.866 0-1.213 5.643-2.25 13.617-2.668M28.233 36.671a97.703 97.703 0 0 1-5.733.164c-9.498 0-17.2-1.283-17.2-2.867s7.702-2.866 17.2-2.866c9.499 0 17.2 1.282 17.2 2.866 0 .959-2.827 1.809-7.167 2.33M15.622 11.031l14.046 23.41"></path>
    <path stroke="#fbfffa" stroke-linejoin="round" stroke-width="1.5" d="M14.617 11.034a2.15 2.15 0 1 0 0-4.3 2.15 2.15 0 0 0 0 4.3ZM30.383 38.269a2.15 2.15 0 1 0 0-4.3 2.15 2.15 0 0 0 0 4.3Z"></path>
</svg>
